{"title":"Capitalism-A.Love.Story.2009.DVDRip.XviD[ENG]-NWO","uid":5661328,"size":732523076,"categoryP":"video","categoryS":"movies","magnet":"?xt=urn:btih:e8f1051186d0c8e2b154245143fdffba492bb20f&amp;dn=Capitalism-A.Love.Story.2009.DVDRip.XviD%5BENG%5D-NWO&amp;tr=udp%3A%2F%2Ftracker.openbittorrent.com%3A80&amp;tr=udp%3A%2F%2Fopen.demonii.com%3A1337&amp;tr=udp%3A%2F%2Ftracker.coppersurfer.tk%3A6969&amp;tr=udp%3A%2F%2Fexodus.desync.com%3A6969","seeders":0,"leechers":1,"uploader":null,"files":3,"time":1277989536,"description":"Format                           : AVI\nFormat/Info                      : Audio Video Interleave\nFile size                        : 697 MiB\nDuration                         : 2h 7mn\nOverall bit rate                 : 766 Kbps\nWriting application              : VirtualDubMod 1.5.10.2 (build 2540/release)\nWriting library                  : VirtualDubMod build 2540/release\n\nVideo\nID                               : 0\nFormat                           : MPEG-4 Visual\nFormat profile                   : Advanced Simple@L5\nFormat settings, BVOP            : Yes\nFormat settings, QPel            : No\nFormat settings, GMC             : No warppoints\nFormat settings, Matrix          : Default (H.263)\nCodec ID                         : DIVX\nCodec ID/Info                    : Project Mayo\nCodec ID/Hint                    : DivX 4\nDuration                         : 2h 7mn\nBit rate                         : 647 Kbps\nWidth                            : 672 pixels\nHeight                           : 376 pixels\nDisplay aspect ratio             : 16:9\nFrame rate                       : 23.976 fps\nResolution                       : 8 bits\nColorimetry                      : 4:2:0\nScan type                        : Progressive\nBits/(Pixel*Frame)               : 0.107\nStream size                      : 589 MiB (85%)\nWriting library                  : XviD 1.2.1 (UTC 2008-12-04)\n\nAudio\nID                               : 1\nFormat                           : MPEG Audio\nFormat version                   : Version 1\nFormat profile                   : Layer 3\nFormat_Settings_Mode             : Joint stereo\nFormat_Settings_ModeExtension    : MS Stereo\nCodec ID                         : 55\nCodec ID/Hint                    : MP3\nDuration                         : 2h 7mn\nBit rate mode                    : Variable\nBit rate                         : 106 Kbps\nNominal bit rate                 : 112 Kbps\nChannel(s)                       : 2 channels\nSampling rate                    : 44.1 KHz\nStream size                      : 96.8 MiB (14%)\nAlignment                        : Aligned on interleaves\nInterleave, duration             : 26 ms (0.63 video frame)\nInterleave, preload duration     : 180 ms\nWriting library                  : LAME3.98r\nEncoding settings                : -m j -V 4 -q 2 -lowpass 15.6 --abr 112","torrent":{"xt":"urn:btih:e8f1051186d0c8e2b154245143fdffba492bb20f","amp;dn":"Capitalism-A.Love.Story.2009.DVDRip.XviD%5BENG%5D-NWO","amp;tr":["udp%3A%2F%2Ftracker.openbittorrent.com%3A80","udp%3A%2F%2Fopen.demonii.com%3A1337","udp%3A%2F%2Ftracker.coppersurfer.tk%3A6969","udp%3A%2F%2Fexodus.desync.com%3A6969"],"infoHash":"e8f1051186d0c8e2b154245143fdffba492bb20f","infoHashBuffer":{"type":"Buffer","data":[232,241,5,17,134,208,200,226,177,84,36,81,67,253,255,186,73,43,178,15]},"announce":[],"urlList":[]}}